<svg width="132" height="132" xmlns="http://www.w3.org/2000/svg" xmlns:xlink="http://www.w3.org/1999/xlink" xml:space="preserve" overflow="hidden"><g transform="translate(-397 -353)"><path d="M406.625 436.875 509.42 436.875 497.21 424.665C495.657 422.998 495.749 420.388 497.416 418.835 499 417.359 501.456 417.359 503.04 418.835L522.29 438.085C523.898 439.696 523.898 442.304 522.29 443.915L503.04 463.165C501.429 464.773 498.821 464.773 497.21 463.165 495.602 461.554 495.602 458.946 497.21 457.335L509.42 445.125 406.625 445.125C404.347 445.125 402.5 443.278 402.5 441 402.5 438.722 404.347 436.875 406.625 436.875Z" fill="#D3D3D3"/><path d="M519.375 392.875 416.58 392.875 428.79 380.665C430.457 379.112 430.549 376.502 428.996 374.835 427.443 373.168 424.832 373.076 423.166 374.629 423.095 374.695 423.026 374.764 422.96 374.835L403.71 394.085C402.102 395.696 402.102 398.304 403.71 399.915L422.96 419.165C424.571 420.773 427.179 420.773 428.79 419.165 430.398 417.554 430.398 414.946 428.79 413.335L416.58 401.125 519.375 401.125C521.653 401.125 523.5 399.278 523.5 397 523.5 394.722 521.653 392.875 519.375 392.875Z" fill="#D3D3D3"/></g></svg>